{"title":"Prince of Persia The Sands of Time (2010) DVDRip XviD-MAX","uid":5765536,"size":1467834051,"categoryP":"video","categoryS":"movies","magnet":"?xt=urn:btih:200da4537c8ffe6d1ffb87a79ce0f3b5cbbbd615&amp;dn=Prince+of+Persia+The+Sands+of+Time+%282010%29+DVDRip+XviD-MAX&amp;tr=udp%3A%2F%2Ftracker.openbittorrent.com%3A80&amp;tr=udp%3A%2F%2Fopen.demonii.com%3A1337&amp;tr=udp%3A%2F%2Ftracker.coppersurfer.tk%3A6969&amp;tr=udp%3A%2F%2Fexodus.desync.com%3A6969","seeders":21,"leechers":0,"uploader":"extremezone","files":-1,"time":1281887207,"description":"Prince of Persia The Sands of Time (2010) DVDRip XviD-MAX\n\nFormat                           : AVI\nFormat/Info                      : Audio Video Interleave\nFile size                        : 1.37 GiB\nDuration                         : 1h 51mn\nOverall bit rate                 : 1 761 Kbps\nWriting application              : VirtualDubMod 1.5.10.2 (build 2542/release)\nWriting library                  : VirtualDubMod build 2542/release\nOriginal source form             : MAX TORRENTZ\nCopyright                        : SIGISMUNT\n\nVideo\nID                               : 0\nFormat                           : MPEG-4 Visual\nFormat profile                   : AdvancedSimple@L5\nFormat settings, BVOP            : Yes\nFormat settings, QPel            : No\nFormat settings, GMC             : No warppoints\nFormat settings, Matrix          : Default (MPEG)\nCodec ID                         : XVID\nCodec ID/Hint                    : XviD\nDuration                         : 1h 51mn\nBit rate                         : 1 303 Kbps\nWidth                            : 624 pixels\nHeight                           : 256 pixels\nDisplay aspect ratio             : 2.40:1\nFrame rate                       : 25.000 fps\nResolution                       : 24 bits\nColorimetry                      : 4:2:0\nScan type                        : Progressive\nBits/(Pixel*Frame)               : 0.326\nStream size                      : 1.01 GiB (74%)\nWriting library                  : XviD 1.2.1 (UTC 2008-12-04)\n\nAudio\nID                               : 1\nFormat                           : AC-3\nFormat/Info                      : Audio Coding 3\nCodec ID                         : 2000\nDuration                         : 1h 51mn\nBit rate mode                    : Constant\nBit rate                         : 448 Kbps\nChannel(s)                       : 6 channels\nChannel positions                : Front: L C R, Surround: L R, LFE\nSampling rate                    : 48.0 KHz\nStream size                      : 356 MiB (25%)\nAlignment                        : Split accross interleaves\nInterleave, duration             : 40 ms (1.00 video frame)\nInterleave, preload duration     : 500 ms\n\nUploader Note: Proper Source , clean audio/video (perfect sync)\n &lt;a href=&quot;\nhttp://www.imdb.com/title/tt0473075/&quot; rel=&quot;nofollow&quot; target=&quot;_NEW&quot;&gt;\nhttp://www.imdb.com/title/tt0473075/&lt;/a&gt;\n\nScreens:\n &lt;a href=&quot;\nhttp://www.postimg.com/image/20000/19801.jpg&quot; rel=&quot;nofollow&quot; target=&quot;_NEW&quot;&gt;\nhttp://www.postimg.com/image/20000/19801.jpg&lt;/a&gt;\n &lt;a href=&quot;\nhttp://www.postimg.com/image/20000/19802.jpg&quot; rel=&quot;nofollow&quot; target=&quot;_NEW&quot;&gt;\nhttp://www.postimg.com/image/20000/19802.jpg&lt;/a&gt;\n &lt;a href=&quot;\nhttp://www.postimg.com/image/20000/19803.jpg&quot; rel=&quot;nofollow&quot; target=&quot;_NEW&quot;&gt;\nhttp://www.postimg.com/image/20000/19803.jpg&lt;/a&gt;\n &lt;a href=&quot;\nhttp://www.postimg.com/image/20000/19804.jpg&quot; rel=&quot;nofollow&quot; target=&quot;_NEW&quot;&gt;\nhttp://www.postimg.com/image/20000/19804.jpg&lt;/a&gt;\n\nScreenCaps:\n &lt;a href=&quot;\nhttp://www.postimg.com/image/20000/19805.jpg&quot; rel=&quot;nofollow&quot; target=&quot;_NEW&quot;&gt;\nhttp://www.postimg.com/image/20000/19805.jpg&lt;/a&gt;\n\nPrince of Persia The Sands of Time (2010) DVDRip XviD-MAX Torrent Free Download\n &lt;a href=&quot;\nhttp://thepiratebay.se/user/extremezone/0/7&quot; rel=&quot;nofollow&quot; target=&quot;_NEW&quot;&gt;\nhttp://thepiratebay.se/user/extremezone/0/7&lt;/a&gt;\n\nHow To Get Your Maxspeed (uTorrent)\n\nTorrent Client - Preferences - Bandwidth - Number of connections - Set aprox. 500 for each \nTorrent Client - Preferences - BiTorrent - Protocol Encryption - Forced\nBandwidth Allocation - High (Set download/upload limit - Unlimited)\nStop Other Active Torrents - Start downloading and wait for connections.\nEnjoy and Seed for at least 1:1 ratio. Don't forget to say thanks/leave reviews.\nGreets to all actual/future p2p/scene quality groups and affiliate websites.\nDon't trust IMDb robot or bad ratings,always watch some trailers first.\nIgnore stupid comments/fake/mislabeled/no-dvdrip/CAM/TS/RAR uploads.\nPlease report if you see online streaming or other spam links.\nIf you need translation subs visit some subtitles sites.\nAlso spread this link to your friends.\nRecommended movie player VLC PLAYER.","torrent":{"xt":"urn:btih:200da4537c8ffe6d1ffb87a79ce0f3b5cbbbd615","amp;dn":"Prince+of+Persia+The+Sands+of+Time+%282010%29+DVDRip+XviD-MAX","amp;tr":["udp%3A%2F%2Ftracker.openbittorrent.com%3A80","udp%3A%2F%2Fopen.demonii.com%3A1337","udp%3A%2F%2Ftracker.coppersurfer.tk%3A6969","udp%3A%2F%2Fexodus.desync.com%3A6969"],"infoHash":"200da4537c8ffe6d1ffb87a79ce0f3b5cbbbd615","infoHashBuffer":{"type":"Buffer","data":[32,13,164,83,124,143,254,109,31,251,135,167,156,224,243,181,203,187,214,21]},"announce":[],"urlList":[]}}